<svg width="1024" height="1024" viewBox="0 0 1024 1024" xmlns="http://www.w3.org/2000/svg">
  <defs>
    <linearGradient id="bgGrad" x1="0%" y1="0%" x2="100%" y2="100%">
      <stop offset="0%" style="stop-color:#0A0A12"/>
      <stop offset="100%" style="stop-color:#12121A"/>
    </linearGradient>
    <linearGradient id="cyanGrad" x1="0%" y1="0%" x2="100%" y2="100%">
      <stop offset="0%" style="stop-color:#00D4FF"/>
      <stop offset="100%" style="stop-color:#00B4D8"/>
    </linearGradient>
  </defs>
  <rect width="1024" height="1024" rx="200" fill="url(#bgGrad)"/>
  <g transform="translate(262, 262)">
    <rect x="0" y="0" width="150" height="150" fill="none" stroke="url(#cyanGrad)" stroke-width="25"/>
    <rect x="40" y="40" width="70" height="70" fill="url(#cyanGrad)"/>
    <rect x="350" y="0" width="150" height="150" fill="none" stroke="url(#cyanGrad)" stroke-width="25"/>
    <rect x="390" y="40" width="70" height="70" fill="url(#cyanGrad)"/>
    <rect x="0" y="350" width="150" height="150" fill="none" stroke="url(#cyanGrad)" stroke-width="25"/>
    <rect x="40" y="390" width="70" height="70" fill="url(#cyanGrad)"/>
    <rect x="200" y="50" width="100" height="50" fill="url(#cyanGrad)"/>
    <rect x="200" y="150" width="50" height="50" fill="url(#cyanGrad)"/>
    <rect x="50" y="200" width="50" height="100" fill="url(#cyanGrad)"/>
    <rect x="150" y="200" width="100" height="50" fill="url(#cyanGrad)"/>
    <rect x="300" y="200" width="50" height="100" fill="url(#cyanGrad)"/>
    <rect x="400" y="200" width="50" height="50" fill="url(#cyanGrad)"/>
    <rect x="200" y="300" width="50" height="50" fill="url(#cyanGrad)"/>
    <rect x="300" y="350" width="100" height="50" fill="url(#cyanGrad)"/>
    <rect x="200" y="400" width="150" height="50" fill="url(#cyanGrad)"/>
    <rect x="400" y="400" width="100" height="100" fill="url(#cyanGrad)"/>
  </g>
  <rect x="200" y="500" width="624" height="4" fill="#00FF88"/>
</svg>
